<svg xmlns="http://www.w3.org/2000/svg" width="192" height="192" viewBox="0 0 192 192"><rect width="100%" height="100%" fill="#10111A"/><path fill="#facc15" d="M93.21 114.335q1.06 0 1.87.82l5.09 5.52q-4.22 5.23-10.39 8.01-6.17 2.79-14.81 2.79-7.73 0-13.89-2.64-6.17-2.64-10.54-7.35-4.37-4.7-6.7-11.23-2.32-6.53-2.32-14.25 0-7.83 2.49-14.33 2.5-6.51 7.03-11.21 4.54-4.7 10.83-7.32t13.92-2.62q7.58 0 13.46 2.5t10.01 6.53l-4.32 6q-.38.57-.98 1.01-.6.43-1.66.43-.72 0-1.49-.41t-1.68-1.01-2.11-1.32-2.78-1.32q-1.59-.6-3.68-1.01-2.08-.4-4.82-.4-4.66 0-8.52 1.65-3.86 1.66-6.65 4.8-2.78 3.15-4.32 7.68-1.53 4.54-1.53 10.35 0 5.85 1.65 10.41 1.66 4.56 4.49 7.68t6.67 4.78q3.84 1.65 8.26 1.65 2.64 0 4.77-.28 2.14-.29 3.94-.92 1.8-.62 3.41-1.6 1.61-.99 3.19-2.43.48-.43 1.01-.69.53-.27 1.1-.27m56.02-46.51-3.22 6.1q-.57 1-1.22 1.46t-1.61.46q-1.01 0-2.18-.75-1.18-.74-2.81-1.65-1.63-.92-3.82-1.66-2.18-.74-5.16-.74-2.69 0-4.7.64-2.02.65-3.39 1.8-1.36 1.16-2.04 2.76-.67 1.61-.67 3.53 0 2.45 1.37 4.08t3.62 2.79q2.26 1.15 5.14 2.06t5.9 1.94q3.03 1.04 5.91 2.4 2.88 1.37 5.13 3.46 2.26 2.09 3.63 5.11 1.37 3.03 1.37 7.35 0 4.7-1.61 8.8-1.61 4.11-4.71 7.16-3.09 3.04-7.56 4.8-4.46 1.75-10.22 1.75-3.31 0-6.53-.65-3.21-.65-6.17-1.85-2.95-1.2-5.54-2.88t-4.61-3.74l3.79-6.19q.48-.68 1.25-1.13.77-.46 1.63-.46 1.2 0 2.6.99 1.39.98 3.31 2.18t4.49 2.18q2.56.99 6.16.99 5.52 0 8.55-2.62 3.02-2.61 3.02-7.51 0-2.74-1.37-4.46-1.36-1.73-3.62-2.91-2.26-1.17-5.14-1.99t-5.85-1.78q-2.98-.96-5.86-2.3t-5.13-3.5q-2.26-2.16-3.63-5.4t-1.37-8q0-3.79 1.52-7.39 1.51-3.6 4.39-6.38 2.88-2.79 7.1-4.47 4.23-1.68 9.7-1.68 6.14 0 11.33 1.92 5.18 1.92 8.83 5.38"/></svg>